<?xml version="1.0" encoding="UTF-8"?>
<svg version="1.1" viewBox="0 0 964 964" width="1280" height="1280" xmlns="http://www.w3.org/2000/svg">
<path transform="translate(497,404)" d="m0 0h242l4 9 5 13 10 19 10 14 4 5v6l-10 26-1 5 7 17 7 24 5 25 1 10v26l-4 25-6 24-7 17-8 11-5 5-9 8-18 11-14 7-17 5-6 1h-20l-21-5-9-2-13-1-16 4-29 12-25 11-21 11-17 12-11 9-5 4-4-1-1-83-5-4-14-7-18-4h-14l-21 5-34 10-26 6-20 3-10 1h-20l-13-3v-226l2-1 6 1h12l17-3 23-6 24-9 29-13 12-3h25l17 4 13 5 15 8 1 1zm45 47-15 4-16 7-9 6-1 199h4l14-7 12-3h20l15 4 28 9 28 7 18 3 17 1 8-1 1-3v-192l-21-2-17-4-23-8-24-11-14-7-7-2zm-106 0-13 2-13 5-20 9-18 7-20 6-24 5-11 2v194h17l28-4 29-7 36-11 18-3h12l18 3 10 3h3v-194l-10-6-21-8-9-2z" fill="#C00A3D"/>
<path transform="translate(423,113)" d="m0 0h13l13 3 26 2 25 1 38-2 16-3 3-1h14l11 3 13 5 17 8 16 8 20 9 21 7 16 3h20l17-4 16-7 15-8h9l6 3 9 12 16 25 10 15 17 26 10 15 2 5-1 4-5 5-19 11-10 9-9 11-7 12-6 15-3 13v39l4 29 6 20 7 13 10 14 10 11 11 7 1 4-7 18-9 23v6l8 24 6 26 3 24v37l-4 28-5 20-6 15-7 14-10 14-5 6-8 7-13 11-19 12-17 8-18 6-26 4h-14l-20-3-22-6-16 6-20 8-27 12-15 9-13 10-15 14-11 14-8 14-3 6-1 5-3-1-9-17-10-14-12-13-11-10-17-12-15-8-35-15-15-6-9-2-20 6-20 3h-15l-20-3-20-6-16-7-14-8-12-9-13-11-9-9-10-14-8-16-6-16-5-19-3-21-1-14v-21l1-17 5-28 7-25 4-11v-7l-7-19-8-21 1-5 10-7 9-9 12-17 7-14 5-17 3-19 2-24v-20l-3-16-5-14-8-15-8-10-9-9-10-6-12-7-6-7 2-6 17-26 11-17 8-12 13-20 10-15 8-7 6-1 11 4 14 8 13 5 15 3h20l21-5 20-7 26-12 16-8 13-6 13-4zm137 20-35 5-22 2h-13l-30-3-22-3h-11l-18 6-26 12-16 8-23 9-17 5-16 3-16 1-21-3-16-5-16-7-3-2-4 1-11 18-14 21-17 26-4 5v3l12 7 10 9 8 9 9 14 8 19 4 16 2 13v40l-4 26-5 18-9 21-10 16-11 13-4 3 1 7 9 24 3 10-7 21-6 19-4 16-1 7v42l3 22 4 20 6 18 8 16 8 10 9 10 14 11 21 12 20 8 18 4 15 1 26-5 13-3h13l12 4 29 12 24 11 16 9 14 10 11 9 10 10 8 12h2l6-10 11-12 12-10 17-11 18-10 37-16 15-6 8-2h11l18 4 15 3 13 1 19-3 17-5 21-10 15-10 13-11 9-10 9-14 7-17 5-18 4-23 2-20v-25l-3-20-6-23-9-25v-7l9-24 4-8-1-4-8-8-9-12-8-14-6-13-5-15-5-23-2-14v-35l3-21 5-17 8-17 10-14 8-9 13-10 6-4-2-4-10-16-16-24-11-17-7-11-3-1-17 8-15 5-14 3-17 1-17-2-17-4-25-9-24-11-25-12-17-6z" fill="#C20D3F"/>
<path transform="translate(376,243)" d="m0 0h121v41h118v41l-1 1h-117l-1-1v-40h-120z" fill="#C10A3D"/>
<path transform="translate(413,438)" d="m0 0 4 1 2 5h2v-2l8-1 13 2 2 4-3 3h-10l5 1v1l-13 2-13 5-20 9-18 7-20 6-24 5-11 1v194l26-2 24-4 27-7 8-1 1 3 9-1 5-2 15-1 5-2h7l-5 5-2 1-9 1-4 3-9 4-6 1-3 2 1 2-30 8-26 5-18 2h-20l-13-3v-226l2-1 6 1h12l17-3 23-6 24-9z" fill="#C40C3F"/>
<path transform="translate(427,153)" d="m0 0h13l38 5 18 2 1 1v59l-1 1h-119l-1-1v-43l16-8 19-10z" fill="#C10A3D"/>
<path transform="translate(496,348)" d="m0 0h118l1 1v48l-1 1h-117l-1-1z" fill="#C10A3D"/>
<path transform="translate(637,348)" d="m0 0h93l1 2 3 32 2 16h-98l-2-4z" fill="#C00A3D"/>
<path transform="translate(479,243)" d="m0 0h17v40l-5 1h-114l1-3v2l8-4 1-3-5-2v-2l-3 1-1 7h-1v-36z" fill="#C00A3D"/>
<path transform="translate(230,243)" d="m0 0h124v41l-2 1h-98l-3-5-9-19-9-13z" fill="#C10A3D"/>
<path transform="translate(637,284)" d="m0 0h102l1 2-4 13-4 25-1 2h-93l-2-6z" fill="#C10A3D"/>
<path transform="translate(243,185)" d="m0 0 22 7 20 4h26l23-4 17-5h3v33l-1 1h-133l2-5 7-10 11-17z" fill="#C20C3F"/>
<path transform="translate(257,397)" d="m0 0h239l1 1v6l-1 1h-241l-1-4z" fill="#C91B4B"/>
<path transform="translate(413,438)" d="m0 0 4 1 2 5h2v-2l8-1 13 2 2 4-3 3h-10l5 1v1l-13 2-13 5-20 9-18 7h-18v2l-13 2h-8l2-1 1-3 10-5 10-2 9-4-2-3h3v-3l27-11z" fill="#DD0E45"/>
<path transform="translate(610,209)" d="m0 0h2v12l4 6 8 4 9-1 6-4 3-6-1-7-1-4 5 2 5 7 1 3v12l-6 10-5 4-8 3h-11l-7-3-8-7-3-6v-13l5-10z" fill="#DD1147"/>
<path transform="translate(350,316)" d="m0 0h2l-1 11 3 6 6 4 9 1 8-4 3-5v-13l4 2 5 8 1 2v11l-4 9-7 6-9 3h-9l-10-4-7-8-2-5v-13l5-8z" fill="#DE1047"/>
<path transform="translate(437,664)" d="m0 0h7l-5 5-2 1-9 1-4 3-9 4-6 1-3 2 1 2-30 8-8 1-4-1-7 1v-2l-6 1-2 2h-4l-2-1-2 2-3-2 1-3 9-3v2l4-1 1-3 10-2 7-2 3-2h8l7-3h-3v-2l7-1 4 1 1-2 3 1-1-4h3v2l9-1 5-2 15-1z" fill="#DE0C44"/>
<path transform="translate(434,296)" d="m0 0 1 3-1 6 4 5 4 2h7l5-2 1-3 1-11 3 1 4 7v11l-5 8-8 4h-10l-8-4-5-7-1-9 4-8z" fill="#E0164B"/>
<path transform="translate(275,297)" d="m0 0h3l-1 8 5 6 3 1h7l4-2 2-4v-9l4 1 3 3 2 10-3 8-8 7-3 1h-10l-8-4-4-5-2-11 4-8z" fill="#DE174C"/>
<path transform="translate(433,346)" d="m0 0 2 1-1 7 4 6 4 2h7l5-4 1-2 1-10 4 2 3 6v11l-4 6-4 4-8 2-9-1-6-4-4-5-2-5 1-8 4-7z" fill="#DF164B"/>
<path transform="translate(536,174)" d="m0 0 3 1-1 8 5 5 4 2 7-1 5-5 1-10 4 2 3 5v12l-6 8-6 3-8 1-9-3-6-7-2-6 1-8 4-6z" fill="#DE184D"/>
<path transform="translate(693,195)" d="m0 0h2v8l3 5 6 3 7-1 5-5v-10l4 2 3 3 1 3v11l-4 6-5 4-5 2h-7l-9-4-5-6-1-2v-10l4-8z" fill="#DF194D"/>
<path transform="translate(693,244)" d="m0 0h2v9l3 5 5 2h8l5-5v-11l4 2 4 7v10l-4 7-3 3-6 2h-9l-8-3-6-8v-11l4-8z" fill="#DF144A"/>
<path transform="translate(299,346)" d="m0 0 4 2 3 6v11l-4 6-5 4-6 2-10-1-6-4-4-5-2-10 4-8 4-2v8l4 5 4 2h6l6-4 1-2z" fill="#DE1449"/>
<path transform="translate(537,244)" d="m0 0h2l-1 10 5 5 2 1h9l5-5 1-11 4 2 3 6v11l-5 8-8 4h-8l-9-3-6-8-1-7 4-10z" fill="#DD1248"/>
<path transform="translate(376,243)" d="m0 0h103v1h-102l1 29 2-2 2 1v2l5 2-1 4-5 3-4 1 119-1v-40h1v41h116v1h-116v40h-1v-40h-120z" fill="#DF0C44"/>
<path transform="translate(640,209)" d="m0 0 5 2 5 7 1 3v12l-6 10-5 4-2 1h-6l2-6-9-1-4-2-2-5 2-3h9l8-4 4-7-1-7z" fill="#C20E40"/>
<path transform="translate(380,316)" d="m0 0 4 2 5 8 1 2v11l-4 9-7 6-6 1 3-9h-7l-2-1v2l-5-1-2-2v-3h2v-2l10-2 5-3 3-5z" fill="#C20D40"/>
<path transform="translate(563,449)" d="m0 0h11l4 4 8 1 1 4 3-1 5 2 4 3h5l1 4h9l3 2v3l6-1 2 1 6 1 1 2h-3l-1 3-6 1-19-7-22-10-12-6-1-3-5-2z" fill="#DA0E45"/>
<path transform="translate(257,397)" d="m0 0h204v1l-199 1-2 2h7l9 3v1h-21l-1-4z" fill="#E11F53"/>
<path transform="translate(637,348)" d="m0 0h93v1h-92l1 37 3 2-1 7-1 1 95 1 1-2v3h-98l-2-4z" fill="#DF0C44"/>
<path transform="translate(716,244)" d="m0 0 4 2 4 7v10l-4 7-3 3h-5v-3l2-5h-4v-2l-2-1 7-5 1-2z" fill="#C41042"/>
<path transform="translate(637,286)" d="m0 0h1l1 30 1-3 5-1 2 7-4 4 1 1 87 1v1h-93l-2-6z" fill="#DF1148"/>
<path transform="translate(496,243)" d="m0 0h1v41h116v1h-116v40h-1v-40l-3-1 3-1z" fill="#E0194E"/>
<path transform="translate(380,316)" d="m0 0 4 2 5 8 1 2v11l-3 7-5-1 1-11-5-1 2-4z" fill="#DF1A4E"/>
<path transform="translate(640,209)" d="m0 0 5 2 5 7 1 3v12l-4 7-3-1-1-6 1-4-2-1 1-2h-3l2-6-1-7z" fill="#DF164C"/>
<path transform="translate(490,826)" d="m0 0 4 1v2l7 2 2 5-3 6-1 5-3-1-6-11v-5z" fill="#DD1A4E"/>
<path transform="translate(496,690)" d="m0 0h1l1 63h1l1 6 4 1 1 5-4 2-3 3 2 2-4-1z" fill="#DF0F46"/>
<path transform="translate(495,399)" d="m0 0h2v5l-1 1h-66v-2h37l21-1 7 1z" fill="#DF0C44"/>
<path transform="translate(639,386)" d="m0 0 3 2-1 7-1 1 95 1 1-2v3h-98l-2-4h3z" fill="#DF0E45"/>
<path transform="translate(254,275)" d="m0 0 1 4h2l-1 5h93v1h-95l-3-5 2-1z" fill="#DF1148"/>
<path transform="translate(492,556)" d="m0 0 2 4 1 5h1v24l-1 2h-2l-2-11v-15z" fill="#DF0C44"/>
<path transform="translate(716,244)" d="m0 0 4 2 4 7v10l-2-2-2 4-4-8z" fill="#E02355"/>
<path transform="translate(367,141)" d="m0 0h6l-1 3-7 3-3 2h-3l-1 2-7 2v2l-7-1 4-4 6-2 2-2 7-2z" fill="#DE0B43"/>
<path transform="translate(313,752)" d="m0 0 13 1-1 2 6 1v1l-8 1h-15l-14-2v-1h17l1-2z" fill="#E11D51"/>
<path transform="translate(376,177)" d="m0 0h1l1 33 2-3 4 4v4h-2l-2 4-4 1z" fill="#DF0C44"/>
<path transform="translate(421,450)" d="m0 0h8l7 1v1l-13 2-13 5-4 1 2-4 2-2 6-1v-2z" fill="#CD2553"/>
<path transform="translate(674,753)" d="m0 0 7 1v2h12v1l-9 1h-14l-15-2v-1h16l2 1z" fill="#E2295A"/>
<path transform="translate(379,271)" d="m0 0 3 1v2l5 2-1 4-5 3-4 1 2 1h-3v-5h2v-7z" fill="#E0154B"/>
<path transform="translate(381,452)" d="m0 0 3 1-1 3-6 1 1 2-11 4-4-2h3v-3z" fill="#CA1748"/>
<path transform="translate(495,399)" d="m0 0h2v5l-1 1h-29l1-2 20-1 7 1z" fill="#E0164B"/>
<path transform="translate(675,176)" d="m0 0h39v1l-16 2-17-1-6-1z" fill="#E11E52"/>
<path transform="translate(565,260)" d="m0 0 1 2-2 6-5 5-5-1 1-2 1-3h2v-2h2v-2h4z" fill="#C20A3D"/>
<path transform="translate(633,473)" d="m0 0h2v2l4-1 5 3-3 2h-6v2l-7-1 3-2-2-1v-2h4z" fill="#DD1046"/>
<path transform="translate(397,667)" d="m0 0h5l-1 5-3 1v1h-6l-3-3 5-3z" fill="#C51344"/>
<path transform="translate(248,739)" d="m0 0h9v2l7 2 1 4-9-3-8-4z" fill="#E01E52"/>
<path transform="translate(403,681)" d="m0 0 4 2-22 6-3-1 3-2 11-2v-2z" fill="#D02554"/>
<path transform="translate(499,314)" d="m0 0 4 1v2h2l-1 3-2 2-4 1v-7z" fill="#DF0C44"/>
<path transform="translate(302,316)" d="m0 0h2l-1 4-5 5h-5l1-3 4-4z" fill="#C41042"/>
<path transform="translate(325,158)" d="m0 0 2 1 3-1v3h-2l-1 3h-7l-1-3z" fill="#DE0B43"/>
<path transform="translate(408,440)" d="m0 0h8v2l-7 2-5 1-4 1v-2z" fill="#C50A3E"/>
<path transform="translate(457,317)" d="m0 0h4l-2 5-4 3-3-1 2-5z" fill="#CA1748"/>
<path transform="translate(563,449)" d="m0 0h11l2 5-7 1-1-3-5-2z" fill="#DF1249"/>
<path transform="translate(254,275)" d="m0 0 1 4h2v6l-4-1-2-5h2z" fill="#DE1A4E"/>
<path transform="translate(639,386)" d="m0 0 3 2-1 7v3l-4-1-1-3h3z" fill="#E22A5B"/>
<path transform="translate(386,466)" d="m0 0h4v2l-10 4-3-1 6-4z" fill="#CE2252"/>
<path transform="translate(303,366)" d="m0 0 1 3-7 6-3-1 3-1v-3l3-2h3z" fill="#C60A3E"/>
<path transform="translate(459,367)" d="m0 0 1 3-5 5-4-1h2l1-4z" fill="#C71345"/>
<path transform="translate(560,195)" d="m0 0h4l-2 5-5 3v-3z" fill="#C92452"/>
<path transform="translate(579,457)" d="m0 0 6 2 4 2-1 3-8-4z" fill="#CC2E5A"/>
<path transform="translate(561,246)" d="m0 0h3l2 10-2-1v-3h-3z" fill="#C41344"/>
<path transform="translate(722,211)" d="m0 0h1l-1 7-5 5-3-1 7-8z" fill="#C80A3E"/>
<path transform="translate(610,209)" d="m0 0h2l-1 6-5 2 1-5z" fill="#D42E5C"/>
<path transform="translate(277,751)" d="m0 0h11l4 4-8-1-7-2z" fill="#E11E52"/>
</svg>
